# xmcd
#
# Track frame offsets:
#	150
#	22006
#	46730
#	70161
#	93461
#	115455
#	138066
#	162376
#	192448
#	213877
#	244199
#	266910
#	289214
#	318749
#
# Disc length: 4502 seconds
#
# Revision: 1
# Processed by: cddbd v1.5.2PL0 Copyright (c) Steve Scherf et al.
# Submitted via: audiograbber 1.83.01
#
DISCID=d511940e
DTITLE=David Guterson -  Schnee, der auf Zedern fällt
DYEAR=2007
DGENRE=Hörbuch
TTITLE0=301_28
TTITLE1=302_29
TTITLE2=303_30
TTITLE3=304_31
TTITLE4=305_32
TTITLE5=306_33
TTITLE6=307_34
TTITLE7=308_35
TTITLE8=309_36
TTITLE9=310_37
TTITLE10=311_38
TTITLE11=312_39
TTITLE12=313_40
TTITLE13=314_41
EXTD=gelesen von Ulrich Matthes
EXTT0=
EXTT1=
EXTT2=
EXTT3=
EXTT4=
EXTT5=
EXTT6=
EXTT7=
EXTT8=
EXTT9=
EXTT10=
EXTT11=
EXTT12=
EXTT13=
PLAYORDER=
